<svg width="24" height="26" viewBox="0 0 24 26" fill="none" xmlns="http://www.w3.org/2000/svg">
<path d="M17.1628 0.101668C15.7261 0.360906 14.1873 1.07762 13.2496 1.92141C12.1196 2.94311 11.5125 4.13256 11.5125 5.34742V5.7439H11.8911C13.4179 5.7439 15.1731 5.08818 16.3573 4.08681C17.6316 3.0092 18.371 1.51985 18.2568 0.264328L18.2327 6.67572e-06L17.9562 0.00508976C17.7999 0.00508976 17.4453 0.0508375 17.1628 0.101668Z" fill="#C1C1C1"/>
<path d="M16.3813 6.57752C15.666 6.69951 15.0409 6.87234 13.8567 7.26882C12.1856 7.82796 12.2037 7.83304 9.94355 7.09599C8.59709 6.66393 7.96594 6.5521 7.06429 6.59277C5.40526 6.66393 3.84241 7.25865 2.56808 8.30577C1.28173 9.35288 0.428171 10.8676 0.0855452 12.7077C-0.0406853 13.3584 -0.0226524 15.3713 0.109589 16.1134C0.344017 17.3791 0.866972 19.0158 1.38392 20.068C2.51398 22.3656 4.47356 24.7445 5.89215 25.5425C6.55937 25.9136 6.88396 26 7.63533 26C8.41676 26 8.80747 25.9288 9.61895 25.6442C11.1097 25.1206 11.3802 25.0596 12.3539 25.024C13.4059 24.9885 13.9769 25.0952 15.2332 25.5629C15.5458 25.6798 15.9966 25.8221 16.2491 25.878C16.79 26.0051 17.7037 26.0305 18.1846 25.9288C18.978 25.7662 19.8436 25.2325 20.6311 24.4344C21.3464 23.7024 22.4704 22.2283 22.9874 21.349C23.4622 20.5357 24.0453 19.2954 23.9972 19.1937C23.9792 19.1632 23.8349 19.0819 23.6786 19.0108C23.2458 18.8227 22.4704 18.35 22.0917 18.0399C20.6371 16.8454 19.9518 15.2442 20.1201 13.4244C20.2343 12.1384 20.8955 10.9541 22.0256 9.9781C22.4043 9.65278 22.9573 9.2563 23.2218 9.11906C23.2819 9.08856 23.0174 8.77341 22.6508 8.42776C21.689 7.5128 20.4087 6.90283 18.9059 6.62835C18.2928 6.5216 16.8802 6.4911 16.3813 6.57752Z" fill="#C1C1C1"/>
</svg>
