<svg width="24" height="24" viewBox="0 0 24 24" fill="none" xmlns="http://www.w3.org/2000/svg">
<path d="M21 15.3981C20.4771 15.3981 19.9542 15.5432 19.5 15.8333C18.5917 16.4137 17.4083 16.4137 16.5 15.8333C15.5917 15.253 14.4083 15.253 13.5 15.8333C12.5917 16.4137 11.4083 16.4137 10.5 15.8333C9.59167 15.253 8.40833 15.253 7.5 15.8333C6.59167 16.4137 5.40833 16.4137 4.5 15.8333C4.04584 15.5432 3.52292 15.3981 3 15.3981M9 6.25V8.16667M12 6.25V8.16667M15 6.25V8.16667M9 3.375H9.01M12 3.375H12.01M15 3.375H15.01M21 20.625V13.9167C21 12.8581 20.1046 12 19 12H5C3.89543 12 3 12.8581 3 13.9167V20.625H21ZM18 12V10.0833C18 9.02479 17.1046 8.16667 16 8.16667H8C6.89543 8.16667 6 9.02479 6 10.0833V12H18Z" stroke="#0071E3" stroke-width="2" stroke-linecap="round" stroke-linejoin="round"/>
</svg>
