<svg width="16" height="14" viewBox="0 0 16 14" fill="none" xmlns="http://www.w3.org/2000/svg">
<path d="M1.25 4.75C1.25 3.92157 1.92157 3.25 2.75 3.25H3.44722C3.94875 3.25 4.4171 2.99935 4.6953 2.58205L5.3047 1.66795C5.5829 1.25065 6.05125 1 6.55278 1H9.44722C9.94875 1 10.4171 1.25065 10.6953 1.66795L11.3047 2.58205C11.5829 2.99935 12.0512 3.25 12.5528 3.25H13.25C14.0784 3.25 14.75 3.92157 14.75 4.75V11.5C14.75 12.3284 14.0784 13 13.25 13H2.75C1.92157 13 1.25 12.3284 1.25 11.5V4.75Z" stroke="white" stroke-linecap="round" stroke-linejoin="round"/>
<path d="M10.25 7.75C10.25 8.99264 9.24264 10 8 10C6.75736 10 5.75 8.99264 5.75 7.75C5.75 6.50736 6.75736 5.5 8 5.5C9.24264 5.5 10.25 6.50736 10.25 7.75Z" stroke="white" stroke-linecap="round" stroke-linejoin="round"/>
</svg>
