<svg width="24" height="24" viewBox="0 0 24 24" fill="none" xmlns="http://www.w3.org/2000/svg">
<path d="M5.99998 3.59961C4.67449 3.59961 3.59998 4.67413 3.59998 5.99961V8.39961C3.59998 9.72509 4.67449 10.7996 5.99998 10.7996H8.39998C9.72546 10.7996 10.8 9.72509 10.8 8.39961V5.99961C10.8 4.67413 9.72546 3.59961 8.39998 3.59961H5.99998Z" fill="#0071E3"/>
<path d="M5.99998 13.1996C4.67449 13.1996 3.59998 14.2741 3.59998 15.5996V17.9996C3.59998 19.3251 4.67449 20.3996 5.99998 20.3996H8.39998C9.72546 20.3996 10.8 19.3251 10.8 17.9996V15.5996C10.8 14.2741 9.72546 13.1996 8.39998 13.1996H5.99998Z" fill="#0071E3"/>
<path d="M13.2 5.99961C13.2 4.67413 14.2745 3.59961 15.6 3.59961H18C19.3255 3.59961 20.4 4.67413 20.4 5.99961V8.39961C20.4 9.72509 19.3255 10.7996 18 10.7996H15.6C14.2745 10.7996 13.2 9.72509 13.2 8.39961V5.99961Z" fill="#0071E3"/>
<path d="M13.2 15.5996C13.2 14.2741 14.2745 13.1996 15.6 13.1996H18C19.3255 13.1996 20.4 14.2741 20.4 15.5996V17.9996C20.4 19.3251 19.3255 20.3996 18 20.3996H15.6C14.2745 20.3996 13.2 19.3251 13.2 17.9996V15.5996Z" fill="#0071E3"/>
</svg>
