<svg width="24" height="24" viewBox="0 0 24 24" fill="none" xmlns="http://www.w3.org/2000/svg">
<g id="Icon/Solid/user-group">
<path id="Icon" d="M14.6 7.19961C14.6 8.63555 13.4359 9.79961 12 9.79961C10.564 9.79961 9.39995 8.63555 9.39995 7.19961C9.39995 5.76367 10.564 4.59961 12 4.59961C13.4359 4.59961 14.6 5.76367 14.6 7.19961ZM20.6 9.59961C20.6 10.3728 19.9731 10.9996 19.1999 10.9996C18.4268 10.9996 17.7999 10.3728 17.7999 9.59961C17.7999 8.82641 18.4268 8.19961 19.1999 8.19961C19.9731 8.19961 20.6 8.82641 20.6 9.59961ZM12 14.1996C14.0986 14.1996 15.8 15.9009 15.8 17.9996V20.5996H8.19995V17.9996C8.19995 15.9009 9.90127 14.1996 12 14.1996ZM6.19995 9.59961C6.19995 10.3728 5.57315 10.9996 4.79995 10.9996C4.02675 10.9996 3.39995 10.3728 3.39995 9.59961C3.39995 8.82641 4.02675 8.19961 4.79995 8.19961C5.57315 8.19961 6.19995 8.82641 6.19995 9.59961ZM20.1999 20.5996V17.9996C20.1999 17.1176 20.0604 16.2671 19.8019 15.4697C20.9476 15.7412 21.7999 16.7709 21.7999 17.9996V20.5996H20.1999ZM2.19995 20.5996V17.9996C2.19995 16.7709 3.05228 15.7412 4.19796 15.4697C3.93952 16.2671 3.79995 17.1176 3.79995 17.9996V20.5996H2.19995Z" fill="#0071E3" stroke="#0071E3" stroke-width="2"/>
</g>
</svg>
