<svg width="18" height="18" viewBox="0 0 18 18" fill="none" xmlns="http://www.w3.org/2000/svg">
<path d="M7.49993 10.5H3.92698C2.81191 10.5 2.08667 9.32653 2.58534 8.32918L5.21034 3.07918C5.46443 2.571 5.98383 2.25 6.55198 2.25H9.56527C9.68792 2.25 9.8101 2.26504 9.92908 2.29479L12.7499 3M7.49993 10.5V14.25C7.49993 15.0784 8.17151 15.75 8.99993 15.75H9.07154C9.44621 15.75 9.74993 15.4463 9.74993 15.0716C9.74993 14.5359 9.90851 14.0121 10.2057 13.5664L12.7499 9.75V3M7.49993 10.5H8.99993M12.7499 3H14.2499C15.0784 3 15.7499 3.67157 15.7499 4.5V9C15.7499 9.82843 15.0784 10.5 14.2499 10.5H12.3749" stroke="#686869" stroke-linecap="round" stroke-linejoin="round"/>
</svg>
