<svg width="20" height="20" viewBox="0 0 20 20" fill="none" xmlns="http://www.w3.org/2000/svg">
<path d="M1.51097 1L4.89618 4.58916M18.4882 19L15.1033 15.4112M11.7679 16.8246C11.1953 16.9398 10.6043 17 10 17C5.77678 17 2.20185 14.0571 1 9.99997C1.32719 8.8955 1.83024 7.87361 2.47436 6.97118M7.99879 7.87868C8.51084 7.33579 9.21822 7 9.99958 7C11.5623 7 12.8291 8.34315 12.8291 10C12.8291 10.8284 12.5124 11.5784 12.0004 12.1213M7.99879 7.87868L12.0004 12.1213M7.99879 7.87868L4.89618 4.58916M12.0004 12.1213L4.89618 4.58916M12.0004 12.1213L15.1033 15.4112M4.89618 4.58916C6.36738 3.58354 8.11941 3 9.99999 3C14.2232 3 17.7982 5.94291 19 10C18.3333 12.2507 16.9362 14.1585 15.1033 15.4112" stroke="#0071E3" stroke-width="2" stroke-linecap="round" stroke-linejoin="round"/>
</svg>
