<svg width="18" height="18" viewBox="0 0 18 18" fill="none" xmlns="http://www.w3.org/2000/svg">
<path d="M10.5 7.5H14.0729C15.188 7.5 15.9133 8.67347 15.4146 9.67082L12.7896 14.9208C12.5355 15.429 12.0161 15.75 11.4479 15.75H8.43466C8.31202 15.75 8.18984 15.735 8.07085 15.7052L5.25 15M10.5 7.5V3.75C10.5 2.92157 9.82843 2.25 9 2.25H8.92839C8.55373 2.25 8.25 2.55373 8.25 2.92839C8.25 3.46412 8.09142 3.98786 7.79426 4.43362L5.25 8.25V15M10.5 7.5H9M5.25 15H3.75C2.92157 15 2.25 14.3284 2.25 13.5V9C2.25 8.17157 2.92157 7.5 3.75 7.5H5.625" stroke="#0071E3" stroke-linecap="round" stroke-linejoin="round"/>
</svg>
