<svg width="18" height="21" viewBox="0 0 18 21" fill="none" xmlns="http://www.w3.org/2000/svg">
<path d="M14.6569 14.935C13.7176 15.859 11.7505 17.7942 10.4024 19.1204C9.62407 19.8861 8.37643 19.8866 7.59812 19.1209C6.27347 17.8178 4.34448 15.9201 3.34315 14.935C0.218951 11.8616 0.218951 6.87854 3.34315 3.80509C6.46734 0.731638 11.5327 0.731638 14.6569 3.80509C17.7811 6.87854 17.7811 11.8616 14.6569 14.935Z" stroke="#0071E3" stroke-width="2" stroke-linecap="round" stroke-linejoin="round"/>
<path d="M12 9.37006C12 11 10.6569 12.3213 9 12.3213C7.34315 12.3213 6 11 6 9.37006C6 7.74012 7.34315 6.41879 9 6.41879C10.6569 6.41879 12 7.74012 12 9.37006Z" stroke="#0071E3" stroke-width="2" stroke-linecap="round" stroke-linejoin="round"/>
</svg>
