<svg width="32" height="32" viewBox="0 0 32 32" fill="none" xmlns="http://www.w3.org/2000/svg">
<path d="M27.9156 17.4313C28.4576 17.1603 28.8 16.6062 28.8 16.0002C28.8 15.3942 28.4576 14.8402 27.9156 14.5691L5.51559 3.36913C4.94807 3.08537 4.26649 3.16378 3.77823 3.569C3.28997 3.97422 3.0873 4.62967 3.26161 5.23977L5.54732 13.2397C5.74357 13.9266 6.37139 14.4002 7.08576 14.4002L14.4 14.4002C15.2837 14.4002 16 15.1165 16 16.0002C16 16.8839 15.2837 17.6002 14.4 17.6002L7.08577 17.6002C6.3714 17.6002 5.74358 18.0738 5.54733 18.7606L3.26161 26.7607C3.0873 27.3707 3.28997 28.0262 3.77823 28.4314C4.26649 28.8366 4.94807 28.9151 5.51559 28.6313L27.9156 17.4313Z" fill="#0071E3"/>
</svg>
