<svg width="24" height="25" viewBox="0 0 24 25" fill="none" xmlns="http://www.w3.org/2000/svg">
<path d="M9.00012 12.5L11.0001 14.5833L15.0001 10.4167M7.83486 4.89274C8.55239 4.8331 9.23358 4.53918 9.78144 4.05285C11.0599 2.91793 12.9403 2.91793 14.2188 4.05285C14.7667 4.53918 15.4478 4.8331 16.1654 4.89274C17.8398 5.03193 19.1695 6.41697 19.3031 8.16117C19.3603 8.9086 19.6425 9.61817 20.1094 10.1889C21.1989 11.5206 21.1989 13.4794 20.1094 14.8111C19.6425 15.3818 19.3603 16.0914 19.3031 16.8388C19.1695 18.583 17.8398 19.968 16.1654 20.1072C15.4479 20.1669 14.7667 20.4608 14.2188 20.9471C12.9403 22.082 11.0599 22.082 9.78144 20.9471C9.23358 20.4608 8.55239 20.1669 7.83486 20.1072C6.16043 19.968 4.83079 18.583 4.69717 16.8388C4.63991 16.0914 4.35775 15.3818 3.89087 14.8111C2.80135 13.4794 2.80135 11.5206 3.89087 10.1889C4.35775 9.61817 4.63991 8.9086 4.69717 8.16117C4.83079 6.41697 6.16043 5.03193 7.83486 4.89274Z" stroke="#0071E3" stroke-width="2" stroke-linecap="round" stroke-linejoin="round"/>
</svg>
