<svg width="24" height="25" viewBox="0 0 24 25" fill="none" xmlns="http://www.w3.org/2000/svg">
<path d="M20 12.5C20 16.9183 16.4183 20.5 12 20.5V22.5C17.5228 22.5 22 18.0228 22 12.5H20ZM12 20.5C7.58172 20.5 4 16.9183 4 12.5H2C2 18.0228 6.47715 22.5 12 22.5V20.5ZM4 12.5C4 8.08172 7.58172 4.5 12 4.5V2.5C6.47715 2.5 2 6.97715 2 12.5H4ZM12 4.5C16.4183 4.5 20 8.08172 20 12.5H22C22 6.97715 17.5228 2.5 12 2.5V4.5ZM15 12.5C15 14.1569 13.6569 15.5 12 15.5V17.5C14.7614 17.5 17 15.2614 17 12.5H15ZM12 15.5C10.3431 15.5 9 14.1569 9 12.5H7C7 15.2614 9.23858 17.5 12 17.5V15.5ZM9 12.5C9 10.8431 10.3431 9.5 12 9.5V7.5C9.23858 7.5 7 9.73858 7 12.5H9ZM12 9.5C13.6569 9.5 15 10.8431 15 12.5H17C17 9.73858 14.7614 7.5 12 7.5V9.5ZM17.6569 5.42893L14.1213 8.96447L15.5355 10.3787L19.0711 6.84315L17.6569 5.42893ZM14.1213 16.0355L17.6569 19.5711L19.0711 18.1569L15.5355 14.6213L14.1213 16.0355ZM9.87868 8.96447L6.34315 5.42893L4.92893 6.84315L8.46447 10.3787L9.87868 8.96447ZM8.46447 14.6213L4.92893 18.1569L6.34315 19.5711L9.87868 16.0355L8.46447 14.6213Z" fill="#0071E3"/>
</svg>
